<?xml version="1.0" encoding="UTF-8"?>
<svg width="12px" height="12px" viewBox="0 0 12 12" version="1.1" xmlns="http://www.w3.org/2000/svg" xmlns:xlink="http://www.w3.org/1999/xlink">
    <title>Icons/12/Someone asks</title>
    <g id="Icons/12/Someone-asks" stroke="none" stroke-width="1" fill="none" fill-rule="evenodd">
        <path d="M4.36437995,7.74827874 C5.77243804,7.74827874 8.5365211,8.42688888 8.71922879,9.77431827 L8.72875991,9.91609291 L8.72875991,10.4580465 C8.72875991,10.7263135 8.52990785,10.9506822 8.27140017,10.9928733 L8.18321241,11 L0.545547494,11 C0.275501485,11 0.049644822,10.8024579 0.00717394955,10.5456532 L2.7000624e-13,10.4580465 L2.7000624e-13,9.91609291 C2.7000624e-13,8.47449649 2.90776814,7.74827874 4.36437995,7.74827874 Z M10.8727616,1.23941668 C12.3784726,3.21754712 12.3730172,5.83518273 10.8727616,7.75369828 C10.6644616,8.02467505 10.2713067,8.06722512 10.0007053,7.87320494 L9.92350892,7.80789363 L9.9071425,7.79163502 C9.69437897,7.58027314 9.65619065,7.24426194 9.83076585,7.00038285 C10.9164054,5.46123479 10.9218608,3.47226528 9.84713227,1.98731257 C9.6671016,1.73801394 9.69983445,1.40200275 9.91805345,1.18522133 C10.1853717,0.919664094 10.6436316,0.941342236 10.8727616,1.23941668 Z M4.36437995,2.32874331 C5.5695702,2.32874331 6.54656993,3.29930677 6.54656993,4.49655748 C6.54656993,5.69380819 5.5695702,6.66437165 4.36437995,6.66437165 C3.15918971,6.66437165 2.18218998,5.69380819 2.18218998,4.49655748 C2.18218998,3.29930677 3.15918971,2.32874331 4.36437995,2.32874331 Z M9.09973221,3.24464479 C9.52525925,4.06299465 9.52525925,4.98431567 9.11064316,5.77014831 C8.91928188,6.13534162 8.44436503,6.21884736 8.12356225,5.98230203 L8.04682554,5.91647576 L8.03045912,5.90021716 C7.83406202,5.70511388 7.79041822,5.4178785 7.89407224,5.16316034 C8.06864744,4.73501704 8.06864744,4.25809792 7.89407224,3.82995462 C7.80337497,3.60707623 7.8254526,3.35515251 7.95665038,3.16858077 L8.01954817,3.0928978 L8.02500364,3.08747827 C8.34687666,2.76772568 8.89242416,2.84359917 9.09973221,3.24464479 Z" id="Combined-Shape" fill="#FFFFFF"></path>
    </g>
</svg>