<svg xmlns="http://www.w3.org/2000/svg" width="32" height="32" viewBox="0 0 32 32">
    <g fill="none" fill-rule="evenodd">
        <rect width="32" height="32" rx="4"/>
        <path fill="#01ACCD" d="M14.8 6c4.86 0 8.8 3.94 8.8 8.8 0 2.1-.736 4.03-1.964 5.542l4.096 4.097c.357.357.357.936 0 1.293-.357.357-.936.357-1.293 0l-4.096-4.097C18.83 22.864 16.901 23.6 14.8 23.6c-4.86 0-8.8-3.94-8.8-8.8C6 9.94 9.94 6 14.8 6zm0 2.07c-3.717 0-6.73 3.013-6.73 6.73 0 3.717 3.013 6.73 6.73 6.73 3.717 0 6.73-3.013 6.73-6.73 0-3.717-3.013-6.73-6.73-6.73z"/>
    </g>
</svg>

<svg xmlns="http://www.w3.org/2000/svg" width="32" height="32" viewBox="0 0 32 32">
    <g fill="none" fill-rule="evenodd">
        <rect width="32" height="32" rx="4"/>
        <path fill="#FFFFFF" d="M14.8 6c4.86 0 8.8 3.94 8.8 8.8 0 2.1-.736 4.03-1.964 5.542l4.096 4.097c.357.357.357.936 0 1.293-.357.357-.936.357-1.293 0l-4.096-4.097C18.83 22.864 16.901 23.6 14.8 23.6c-4.86 0-8.8-3.94-8.8-8.8C6 9.94 9.94 6 14.8 6zm0 2.07c-3.717 0-6.73 3.013-6.73 6.73 0 3.717 3.013 6.73 6.73 6.73 3.717 0 6.73-3.013 6.73-6.73 0-3.717-3.013-6.73-6.73-6.73z"/>
    </g>
</svg>